<?xml version="1.0" encoding="utf-8"?>
<!-- Generator: Adobe Illustrator 16.0.0, SVG Export Plug-In . SVG Version: 6.00 Build 0)  -->
<!DOCTYPE svg PUBLIC "-//W3C//DTD SVG 1.1//EN" "http://www.w3.org/Graphics/SVG/1.1/DTD/svg11.dtd">
<svg version="1.1" id="Layer_1" xmlns="http://www.w3.org/2000/svg" xmlns:xlink="http://www.w3.org/1999/xlink" x="0px" y="0px"
	 width="361px" height="98.5px" viewBox="0 0 361 98.5" enable-background="new 0 0 361 98.5" xml:space="preserve">
<path fill="#FCFCFC" d="M121.666,75.57c0,0.475-0.122,0.9-0.365,1.279c-0.244,0.379-0.598,0.688-1.061,0.931
	c-0.412,0.213-0.864,0.368-1.356,0.466c-0.492,0.098-1.055,0.146-1.689,0.146c-0.469,0-0.95-0.01-1.444-0.025
	c-0.24-0.008-0.429-0.014-0.565-0.02c-0.146-0.006-0.26-0.127-0.258-0.271c0.012-0.813,0.02-1.586,0.024-2.315
	c0.005-0.808,0.007-1.577,0.007-2.313c0-1.392-0.006-2.494-0.018-3.308c-0.006-0.463-0.011-0.801-0.014-1.01
	c-0.002-0.145,0.111-0.264,0.256-0.271c0.13-0.006,0.304-0.012,0.525-0.021c0.457-0.018,0.9-0.027,1.331-0.027
	c0.487,0,0.937,0.032,1.348,0.097c0.412,0.063,0.759,0.153,1.043,0.267c0.431,0.169,0.769,0.415,1.014,0.735
	c0.246,0.319,0.369,0.712,0.369,1.175c0,0.488-0.155,0.921-0.463,1.298c-0.309,0.376-0.661,0.634-1.057,0.771v0.07
	c0.326,0.028,0.642,0.105,0.949,0.231c0.307,0.125,0.577,0.305,0.808,0.535c0.203,0.204,0.355,0.429,0.46,0.676
	C121.614,74.908,121.666,75.212,121.666,75.57 M120.458,75.605c0-0.24-0.042-0.457-0.127-0.648s-0.214-0.376-0.384-0.551
	c-0.161-0.161-0.382-0.291-0.665-0.391c-0.282-0.101-0.587-0.149-0.919-0.149c-0.267,0-0.48,0.003-0.644,0.007
	c-0.029,0.001-0.057,0.002-0.083,0.002c-0.136,0.004-0.254-0.096-0.271-0.232l-0.044-0.326c-0.021-0.153,0.093-0.291,0.247-0.303
	c0.236-0.021,0.449-0.058,0.642-0.109c0.268-0.072,0.506-0.184,0.713-0.329c0.199-0.142,0.363-0.324,0.491-0.544
	c0.127-0.221,0.192-0.469,0.192-0.743c0-0.288-0.072-0.539-0.213-0.748c-0.141-0.212-0.335-0.378-0.581-0.502
	c-0.209-0.101-0.463-0.174-0.766-0.224c-0.303-0.051-0.626-0.075-0.972-0.075c-0.222,0-0.427,0.004-0.613,0.011
	c-0.038,0.002-0.073,0.003-0.104,0.005c-0.143,0.005-0.255,0.119-0.258,0.261c-0.011,0.617-0.018,1.268-0.02,1.948
	c-0.002,0.776-0.003,1.341-0.003,1.69c0,0.813,0.003,1.633,0.01,2.455c0.004,0.492,0.008,0.847,0.009,1.063
	c0.001,0.145,0.113,0.26,0.255,0.266c0.039,0.002,0.081,0.004,0.125,0.006c0.16,0.008,0.312,0.012,0.459,0.012
	c0.543,0,1.048-0.028,1.514-0.085c0.466-0.058,0.859-0.177,1.181-0.354c0.265-0.146,0.469-0.34,0.614-0.576
	C120.386,76.201,120.458,75.924,120.458,75.605"/>
<path fill="#FCFCFC" d="M129.992,69.805h-0.713c-0.149,0-0.269-0.121-0.269-0.27v-0.688c0-0.147,0.12-0.268,0.269-0.268h0.713
	c0.147,0,0.269,0.119,0.269,0.268v0.688C130.261,69.684,130.14,69.805,129.992,69.805 M129.925,78.371h-0.575
	c-0.15,0-0.271-0.123-0.269-0.271c0.003-0.231,0.007-0.607,0.012-1.129c0.007-0.855,0.011-1.563,0.011-2.125
	c0-0.486-0.001-1.022-0.003-1.606c-0.002-0.517-0.009-1.112-0.02-1.784c-0.003-0.15,0.119-0.271,0.268-0.271h0.577
	c0.149,0,0.27,0.121,0.268,0.271c-0.008,0.58-0.015,1.126-0.021,1.643c-0.007,0.594-0.01,1.123-0.01,1.586
	c0,1.104,0.005,1.99,0.017,2.658c0.006,0.333,0.011,0.585,0.014,0.758C130.195,78.247,130.075,78.371,129.925,78.371"/>
<path fill="#FCFCFC" d="M142.107,71.77c0.03,0.139-0.05,0.274-0.185,0.314c-0.245,0.072-0.565,0.182-0.959,0.326
	c-0.498,0.185-1.065,0.425-1.704,0.724c-0.093,0.044-0.153,0.138-0.155,0.24c-0.001,0.121-0.002,0.304-0.005,0.546
	c-0.005,0.424-0.008,0.818-0.008,1.184c0,0.559,0.007,1.222,0.018,1.987c0.007,0.457,0.013,0.793,0.016,1.009
	c0.001,0.149-0.119,0.271-0.269,0.271h-0.58c-0.15,0-0.271-0.123-0.268-0.273c0.001-0.131,0.005-0.305,0.01-0.521
	c0.009-0.45,0.014-1.221,0.014-2.311c0-0.439-0.001-1.056-0.007-1.847c-0.004-0.688-0.01-1.346-0.018-1.966
	c-0.002-0.15,0.119-0.271,0.268-0.271h0.562c0.148,0,0.268,0.119,0.268,0.27v0.813l0.007,0.006c0.535-0.304,1.063-0.565,1.584-0.789
	c0.377-0.16,0.7-0.285,0.968-0.371c0.151-0.049,0.309,0.045,0.343,0.199L142.107,71.77z"/>
<path fill="#FCFCFC" d="M150.089,78.332c0,0.45-0.065,0.875-0.193,1.273c-0.127,0.396-0.346,0.738-0.654,1.022
	c-0.271,0.247-0.608,0.453-1.014,0.622c-0.358,0.148-0.813,0.257-1.368,0.326c-0.132,0.017-0.257-0.066-0.292-0.194l-0.097-0.348
	c-0.044-0.156,0.06-0.313,0.22-0.339c0.332-0.049,0.628-0.112,0.891-0.193c0.341-0.104,0.611-0.246,0.81-0.427
	c0.213-0.194,0.367-0.442,0.462-0.74c0.095-0.298,0.142-0.706,0.142-1.224c0-1.188-0.006-2.633-0.014-4.329
	c-0.007-1.177-0.011-1.954-0.013-2.333c-0.001-0.149,0.119-0.27,0.268-0.27h0.583c0.149,0,0.269,0.121,0.268,0.271
	c-0.001,0.186-0.003,0.463-0.005,0.832c-0.005,0.667-0.007,1.465-0.007,2.389c0,0.597,0.002,1.224,0.007,1.879
	C150.085,77.208,150.089,77.802,150.089,78.332 M149.884,69.803h-0.714c-0.148,0-0.269-0.119-0.269-0.268v-0.688
	c0-0.147,0.12-0.268,0.269-0.268h0.714c0.148,0,0.268,0.119,0.268,0.268v0.688C150.152,69.684,150.032,69.803,149.884,69.803"/>
<path fill="#FCFCFC" d="M162.74,74.32c0,1.175-0.003,2.132-0.007,2.869c-0.002,0.436-0.004,0.752-0.005,0.951
	c-0.001,0.137-0.107,0.252-0.247,0.265c-0.105,0.009-0.244,0.02-0.416,0.032c-0.393,0.03-0.9,0.045-1.52,0.045
	c-0.389,0-0.78-0.034-1.172-0.104c-0.394-0.071-0.732-0.174-1.017-0.306c-0.378-0.176-0.686-0.415-0.92-0.719
	c-0.234-0.304-0.352-0.668-0.352-1.095c0-0.448,0.139-0.838,0.417-1.168c0.277-0.329,0.662-0.595,1.153-0.8
	c0.308-0.128,0.719-0.242,1.234-0.344c0.439-0.088,0.934-0.157,1.48-0.208c0.158-0.015,0.27-0.162,0.239-0.317
	c-0.046-0.24-0.126-0.443-0.239-0.615c-0.157-0.236-0.386-0.416-0.689-0.539c-0.208-0.086-0.439-0.146-0.696-0.182
	c-0.256-0.035-0.555-0.053-0.895-0.053c-0.214,0-0.394,0.003-0.543,0.014c-0.081,0.005-0.176,0.012-0.287,0.018
	c-0.168,0.011-0.303-0.133-0.282-0.301l0.048-0.404c0.015-0.129,0.121-0.229,0.25-0.234c0.058-0.004,0.124-0.007,0.2-0.012
	c0.21-0.012,0.498-0.018,0.862-0.018c0.559,0,1.058,0.057,1.495,0.174c0.438,0.115,0.802,0.306,1.091,0.563
	c0.27,0.247,0.474,0.552,0.61,0.914C162.671,73.109,162.74,73.634,162.74,74.32 M161.653,76.033v-0.611c0-0.17,0-0.357-0.003-0.564
	c-0.001-0.156-0.137-0.279-0.293-0.264c-0.206,0.021-0.474,0.055-0.804,0.102c-0.521,0.072-0.959,0.179-1.314,0.314
	c-0.265,0.1-0.5,0.249-0.707,0.448s-0.309,0.444-0.309,0.739c0,0.32,0.088,0.58,0.263,0.777c0.175,0.195,0.414,0.348,0.717,0.45
	c0.232,0.081,0.489,0.14,0.771,0.173c0.281,0.036,0.579,0.055,0.891,0.055c0.095,0,0.211-0.002,0.348-0.008
	c0.058,0,0.117-0.002,0.176-0.006c0.145-0.005,0.259-0.121,0.26-0.266c0.001-0.061,0.002-0.131,0.002-0.212
	C161.652,76.883,161.653,76.507,161.653,76.033"/>
<path fill="#FCFCFC" d="M175.873,78.21c0,0.147-0.117,0.269-0.265,0.271h-0.004c-0.15,0.002-0.271,0.004-0.361,0.004
	c-0.896,0-1.597-0.039-2.104-0.116c-0.507-0.079-1.001-0.232-1.485-0.466c-0.63-0.303-1.107-0.704-1.435-1.207
	c-0.327-0.5-0.49-1.061-0.49-1.674c0-0.72,0.183-1.356,0.547-1.914c0.364-0.556,0.891-0.988,1.576-1.301
	c0.403-0.189,0.865-0.334,1.386-0.431c0.432-0.081,0.857-0.128,1.276-0.142c0.145-0.006,0.258-0.125,0.258-0.271l-0.018-2.739
	c-0.001-0.148,0.119-0.27,0.268-0.27h0.583c0.149,0,0.27,0.12,0.269,0.27c-0.002,0.313-0.006,0.887-0.013,1.719
	c-0.01,1.229-0.013,2.478-0.013,3.742c0,0.998,0.003,1.9,0.009,2.707C175.863,77.081,175.869,77.688,175.873,78.21 M174.774,73.488
	v-0.624v-0.416c0-0.151-0.127-0.272-0.279-0.269c-0.37,0.014-0.724,0.053-1.061,0.116c-0.419,0.08-0.778,0.188-1.076,0.325
	c-0.474,0.218-0.841,0.527-1.101,0.934c-0.261,0.404-0.391,0.879-0.391,1.422c0,0.487,0.125,0.907,0.376,1.258
	c0.251,0.349,0.563,0.623,0.938,0.822c0.327,0.174,0.695,0.307,1.105,0.395c0.41,0.087,0.839,0.131,1.29,0.131h0.091h0.093
	c0-0.043,0.001-0.396,0.007-1.063C174.771,75.857,174.774,74.846,174.774,73.488"/>
<path fill="#FCFCFC" d="M188.551,74.32c0,1.175-0.004,2.132-0.01,2.869c-0.002,0.436-0.003,0.752-0.005,0.951
	c-0.001,0.137-0.106,0.252-0.246,0.265c-0.106,0.009-0.245,0.02-0.416,0.032c-0.394,0.03-0.899,0.045-1.521,0.045
	c-0.389,0-0.779-0.034-1.172-0.104c-0.395-0.071-0.731-0.174-1.017-0.306c-0.379-0.176-0.687-0.415-0.92-0.719
	c-0.235-0.304-0.353-0.668-0.353-1.095c0-0.448,0.14-0.838,0.416-1.168c0.276-0.329,0.662-0.595,1.154-0.8
	c0.307-0.128,0.719-0.242,1.232-0.344c0.439-0.088,0.934-0.157,1.479-0.208c0.158-0.015,0.271-0.162,0.239-0.317
	c-0.046-0.24-0.126-0.443-0.239-0.615c-0.154-0.236-0.386-0.416-0.688-0.539c-0.207-0.086-0.439-0.146-0.695-0.182
	c-0.257-0.035-0.555-0.053-0.896-0.053c-0.213,0-0.395,0.003-0.543,0.014c-0.08,0.005-0.176,0.012-0.286,0.018
	c-0.167,0.011-0.304-0.133-0.282-0.301l0.048-0.404c0.017-0.129,0.121-0.229,0.251-0.234c0.059-0.004,0.123-0.007,0.198-0.012
	c0.211-0.012,0.499-0.018,0.862-0.018c0.561,0,1.06,0.057,1.496,0.174c0.438,0.115,0.803,0.306,1.09,0.563
	c0.271,0.247,0.475,0.552,0.611,0.914S188.551,73.634,188.551,74.32 M187.463,76.033v-0.611c0-0.17-0.002-0.357-0.004-0.564
	c-0.003-0.156-0.139-0.279-0.295-0.264c-0.204,0.021-0.474,0.055-0.803,0.102c-0.521,0.072-0.96,0.179-1.314,0.314
	c-0.266,0.1-0.5,0.249-0.707,0.448c-0.205,0.199-0.309,0.444-0.309,0.739c0,0.32,0.088,0.58,0.264,0.777
	c0.174,0.195,0.413,0.348,0.717,0.45c0.231,0.081,0.488,0.14,0.771,0.173c0.28,0.036,0.579,0.055,0.892,0.055
	c0.096,0,0.211-0.002,0.348-0.008c0.058,0,0.115-0.002,0.176-0.006c0.145-0.005,0.259-0.121,0.26-0.266
	c0-0.061,0.002-0.131,0.002-0.212C187.46,76.883,187.463,76.507,187.463,76.033"/>
<path fill="#FCFCFC" d="M201.846,78.371h-0.576c-0.15,0-0.271-0.123-0.27-0.271c0.004-0.227,0.008-0.574,0.014-1.043
	c0.008-0.744,0.01-1.203,0.01-1.377c0-0.248-0.002-0.611-0.002-1.093c-0.004-0.479-0.008-0.831-0.012-1.054
	c-0.015-0.545-0.119-0.936-0.313-1.174c-0.192-0.236-0.529-0.354-1.009-0.354c-0.288,0-0.646,0.085-1.072,0.256
	c-0.384,0.153-0.771,0.345-1.162,0.575c-0.082,0.047-0.131,0.135-0.132,0.229c-0.001,0.141-0.003,0.371-0.006,0.694
	c-0.005,0.513-0.009,0.979-0.009,1.399c0,0.551,0.008,1.213,0.02,1.988c0.007,0.43,0.012,0.748,0.016,0.951
	c0.002,0.148-0.119,0.271-0.269,0.271h-0.579c-0.15,0-0.271-0.123-0.27-0.271c0.002-0.145,0.007-0.344,0.011-0.599
	c0.01-0.548,0.015-1.36,0.015-2.44c0-0.498-0.001-1.082-0.004-1.748c-0.001-0.586-0.009-1.205-0.021-1.856
	c-0.002-0.149,0.119-0.272,0.27-0.272h0.566c0.146,0,0.269,0.121,0.268,0.271l-0.006,0.546l0.008,0.016
	c0.663-0.38,1.217-0.645,1.659-0.793s0.812-0.225,1.104-0.225c0.605,0,1.094,0.191,1.461,0.57c0.367,0.383,0.549,0.904,0.549,1.567
	c0,0.597-0.002,1.112-0.01,1.545c-0.006,0.433-0.012,0.786-0.012,1.056c0,0.432,0.006,0.97,0.02,1.615
	c0.006,0.328,0.01,0.577,0.013,0.748C202.115,78.248,201.995,78.371,201.846,78.371"/>
<path fill="#FCFCFC" d="M226.895,73.668c0,0.833-0.204,1.564-0.613,2.195c-0.408,0.629-0.939,1.136-1.594,1.519
	c-0.567,0.338-1.2,0.593-1.898,0.769c-0.697,0.177-1.482,0.264-2.352,0.264c-0.332,0-0.656-0.004-0.975-0.016
	c-0.162-0.004-0.289-0.008-0.378-0.01c-0.083-0.003-0.147-0.07-0.146-0.152c0.002-0.229,0.007-0.727,0.016-1.489
	c0.012-1.067,0.018-2.08,0.018-3.036c0-0.507,0-1.158-0.002-1.953c-0.004-0.761-0.014-1.676-0.029-2.746
	c-0.002-0.083,0.064-0.152,0.148-0.152c0.108-0.002,0.274-0.004,0.498-0.006c0.385-0.006,0.592-0.008,0.62-0.008
	c0.979,0,1.851,0.088,2.608,0.264c0.759,0.175,1.438,0.451,2.033,0.83c0.691,0.439,1.203,0.971,1.539,1.588
	C226.727,72.145,226.895,72.857,226.895,73.668 M225.688,73.66c0-0.616-0.133-1.176-0.397-1.676
	c-0.265-0.502-0.683-0.936-1.256-1.293c-0.536-0.338-1.126-0.57-1.776-0.703c-0.65-0.135-1.24-0.199-1.771-0.199h-0.222
	c-0.082,0-0.148,0.066-0.149,0.148c-0.008,0.683-0.015,1.252-0.017,1.711c-0.002,0.494-0.004,0.888-0.004,1.181
	c0,0.209,0.002,0.694,0.004,1.46c0.002,0.736,0.006,1.746,0.011,3.027c0.001,0.084,0.065,0.151,0.151,0.151h0.029h0.182
	c0.613,0,1.231-0.071,1.852-0.218c0.619-0.145,1.143-0.344,1.568-0.6c0.539-0.321,0.973-0.73,1.302-1.228
	C225.521,74.932,225.688,74.342,225.688,73.66"/>
<path fill="#FCFCFC" d="M239.291,74.32c0,1.175-0.002,2.132-0.008,2.869c-0.002,0.523-0.004,0.877-0.005,1.058
	c-0.001,0.079-0.062,0.144-0.138,0.147c-0.111,0.011-0.287,0.024-0.524,0.043c-0.394,0.03-0.899,0.045-1.519,0.045
	c-0.391,0-0.781-0.034-1.174-0.104c-0.395-0.071-0.731-0.174-1.017-0.306c-0.378-0.176-0.687-0.415-0.92-0.719
	c-0.235-0.304-0.353-0.668-0.353-1.095c0-0.448,0.141-0.838,0.416-1.168c0.277-0.329,0.662-0.595,1.153-0.8
	c0.308-0.128,0.72-0.242,1.233-0.344c0.473-0.094,1.009-0.168,1.604-0.219c0.088-0.009,0.149-0.086,0.139-0.172
	c-0.039-0.299-0.127-0.549-0.262-0.75c-0.156-0.238-0.387-0.416-0.689-0.541c-0.207-0.084-0.438-0.146-0.693-0.181
	c-0.257-0.035-0.555-0.053-0.896-0.053c-0.213,0-0.394,0.003-0.543,0.014c-0.111,0.009-0.254,0.015-0.428,0.024
	c-0.093,0.007-0.169-0.074-0.158-0.168l0.078-0.643c0.008-0.072,0.066-0.128,0.141-0.133c0.074-0.004,0.174-0.009,0.297-0.018
	c0.211-0.012,0.499-0.017,0.861-0.017c0.561,0,1.06,0.058,1.496,0.175c0.438,0.114,0.803,0.305,1.092,0.563
	c0.27,0.247,0.474,0.552,0.61,0.914C239.223,73.109,239.291,73.634,239.291,74.32 M238.205,76.033v-0.611
	c0-0.204-0.002-0.436-0.006-0.693c-0.001-0.086-0.074-0.153-0.161-0.146c-0.217,0.02-0.528,0.057-0.935,0.113
	c-0.521,0.072-0.959,0.179-1.315,0.314c-0.264,0.1-0.5,0.249-0.706,0.448c-0.205,0.199-0.309,0.444-0.309,0.739
	c0,0.32,0.088,0.58,0.263,0.777c0.177,0.195,0.415,0.348,0.718,0.45c0.231,0.081,0.487,0.14,0.771,0.173
	c0.281,0.036,0.578,0.055,0.892,0.055c0.095,0,0.212-0.002,0.349-0.008c0.094-0.002,0.188-0.006,0.289-0.009
	c0.08-0.003,0.145-0.067,0.146-0.149c0-0.076,0.001-0.188,0.003-0.324C238.203,76.883,238.205,76.507,238.205,76.033"/>
<path fill="#FCFCFC" d="M252.707,78.371h-0.814c-0.084,0-0.151-0.069-0.15-0.153c0.004-0.213,0.01-0.589,0.016-1.13
	c0.008-0.712,0.01-1.183,0.01-1.408c0-0.248,0-0.611-0.002-1.093c-0.004-0.479-0.008-0.831-0.012-1.054
	c-0.016-0.545-0.119-0.936-0.313-1.174c-0.193-0.236-0.53-0.354-1.009-0.354c-0.271,0-0.615,0.08-1.037,0.242
	c-0.399,0.153-0.818,0.356-1.26,0.614c-0.047,0.027-0.076,0.078-0.076,0.132l0.026,5.225c0.001,0.085-0.065,0.152-0.149,0.152
	h-0.817c-0.084,0-0.151-0.068-0.149-0.152c0.004-0.315,0.01-1.01,0.015-2.082c0.007-1.305,0.011-2.38,0.011-3.223
	c0-0.549-0.001-1.242-0.004-2.078c-0.002-0.797-0.01-1.705-0.023-2.728c0-0.082,0.067-0.152,0.15-0.152h0.818
	c0.084,0,0.152,0.068,0.15,0.15l-0.027,3.892l0.009,0.008c0.677-0.379,1.229-0.644,1.661-0.789c0.431-0.146,0.802-0.221,1.109-0.221
	c0.604,0,1.092,0.19,1.459,0.571c0.367,0.382,0.551,0.903,0.551,1.566c0,0.598-0.004,1.112-0.01,1.545
	c-0.009,0.434-0.013,0.786-0.013,1.055c0,0.433,0.005,0.927,0.015,1.485c0.008,0.442,0.014,0.775,0.02,0.998
	C252.858,78.303,252.791,78.371,252.707,78.371"/>
<path fill="#FCFCFC" d="M265.491,74.32c0,1.175-0.003,2.132-0.008,2.869c-0.003,0.523-0.005,0.877-0.007,1.058
	c0,0.079-0.06,0.144-0.137,0.147c-0.113,0.011-0.287,0.024-0.523,0.043c-0.395,0.03-0.9,0.045-1.521,0.045
	c-0.389,0-0.779-0.034-1.173-0.104c-0.394-0.071-0.731-0.174-1.016-0.306c-0.378-0.176-0.687-0.415-0.921-0.719
	s-0.352-0.668-0.352-1.095c0-0.448,0.139-0.838,0.416-1.168c0.277-0.329,0.662-0.595,1.154-0.8c0.309-0.128,0.719-0.242,1.232-0.344
	c0.473-0.094,1.008-0.168,1.604-0.219c0.087-0.009,0.148-0.086,0.139-0.172c-0.041-0.299-0.128-0.549-0.261-0.75
	c-0.157-0.238-0.387-0.416-0.69-0.541c-0.207-0.084-0.438-0.146-0.694-0.181c-0.257-0.035-0.556-0.053-0.896-0.053
	c-0.214,0-0.395,0.003-0.544,0.014c-0.112,0.009-0.255,0.015-0.428,0.024c-0.093,0.007-0.17-0.074-0.158-0.168l0.077-0.643
	c0.009-0.072,0.066-0.128,0.141-0.133c0.075-0.004,0.176-0.009,0.297-0.018c0.211-0.012,0.5-0.017,0.863-0.017
	c0.559,0,1.059,0.058,1.495,0.175c0.438,0.114,0.802,0.305,1.091,0.563c0.271,0.247,0.473,0.552,0.61,0.914
	C265.419,73.105,265.491,73.634,265.491,74.32 M264.403,76.033v-0.611c0-0.204-0.001-0.436-0.004-0.693
	c-0.003-0.086-0.075-0.153-0.163-0.146c-0.217,0.02-0.527,0.057-0.934,0.113c-0.521,0.072-0.961,0.179-1.314,0.314
	c-0.266,0.1-0.5,0.249-0.706,0.448s-0.31,0.444-0.31,0.739c0,0.32,0.088,0.58,0.262,0.777c0.176,0.195,0.415,0.348,0.719,0.45
	c0.232,0.081,0.489,0.14,0.771,0.173c0.281,0.036,0.578,0.055,0.892,0.055c0.095,0,0.211-0.002,0.349-0.008
	c0.094-0.002,0.188-0.006,0.289-0.009c0.08-0.003,0.145-0.067,0.146-0.149c0-0.076,0.002-0.188,0.003-0.324
	C264.402,76.883,264.403,76.507,264.403,76.033"/>
<path fill="#FCFCFC" d="M289.85,68.857c0.106,0,0.191,0.086,0.191,0.19c0,0.824-0.006,1.513-0.015,2.063
	c-0.009,0.596-0.015,1.113-0.015,1.554c0,0.54,0,1,0.004,1.381c0.002,0.382,0.004,0.713,0.004,0.992
	c0,0.549-0.082,1.032-0.245,1.453c-0.163,0.418-0.411,0.784-0.742,1.097s-0.738,0.559-1.222,0.735
	c-0.482,0.178-1.043,0.267-1.678,0.267s-1.192-0.087-1.677-0.263c-0.481-0.175-0.894-0.423-1.229-0.739
	c-0.33-0.313-0.577-0.679-0.741-1.097c-0.163-0.421-0.245-0.904-0.245-1.453c0-0.279,0.001-0.61,0.004-0.992
	c0.003-0.381,0.004-0.841,0.004-1.381c0-0.44-0.006-0.958-0.015-1.554c-0.009-0.551-0.015-1.239-0.015-2.063
	c0-0.104,0.086-0.19,0.19-0.19h0.786c0.105,0,0.191,0.088,0.189,0.194c-0.004,0.203-0.009,0.543-0.013,1.017
	c-0.007,0.689-0.011,1.596-0.011,2.719c0,0.342,0.001,0.693,0.004,1.058c0.002,0.365,0.003,0.739,0.003,1.122
	c0,0.868,0.249,1.525,0.746,1.973s1.169,0.672,2.019,0.672c0.918,0,1.606-0.213,2.065-0.641c0.459-0.427,0.688-1.094,0.688-2.004
	c0-0.383,0.002-0.757,0.004-1.122c0.004-0.364,0.004-0.716,0.004-1.058c0-1.123-0.004-2.042-0.014-2.757
	c-0.007-0.464-0.012-0.789-0.013-0.98c-0.002-0.106,0.084-0.19,0.188-0.19h0.793V68.857z M284.977,67.991h-0.976
	c-0.104,0-0.19-0.085-0.19-0.189v-0.921c0-0.104,0.086-0.189,0.19-0.189h0.976c0.104,0,0.19,0.086,0.19,0.189v0.921
	C285.168,67.906,285.082,67.991,284.977,67.991 M288.262,67.991h-0.979c-0.104,0-0.189-0.085-0.189-0.189v-0.921
	c0-0.104,0.086-0.189,0.189-0.189h0.979c0.104,0,0.188,0.086,0.188,0.189v0.921C288.449,67.906,288.365,67.991,288.262,67.991"/>
<path fill="#FCFCFC" d="M301.977,76.288c0,0.353-0.086,0.664-0.256,0.938c-0.172,0.273-0.396,0.496-0.67,0.668
	c-0.289,0.181-0.634,0.314-1.027,0.408c-0.396,0.092-0.834,0.139-1.313,0.139c-0.231,0-0.474-0.012-0.724-0.032
	c-0.105-0.009-0.189-0.017-0.258-0.022c-0.096-0.008-0.168-0.086-0.174-0.181l-0.024-0.55c-0.005-0.114,0.092-0.207,0.204-0.199
	c0.074,0.006,0.169,0.013,0.279,0.021c0.287,0.021,0.572,0.031,0.855,0.031c0.166,0,0.379-0.015,0.641-0.042
	c0.26-0.028,0.476-0.081,0.646-0.155c0.235-0.104,0.412-0.231,0.526-0.385c0.113-0.152,0.17-0.334,0.17-0.548
	c0-0.192-0.051-0.353-0.149-0.472c-0.099-0.121-0.237-0.238-0.412-0.354c-0.188-0.128-0.448-0.264-0.776-0.408
	c-0.33-0.144-0.604-0.281-0.828-0.414c-0.316-0.193-0.561-0.424-0.729-0.689c-0.166-0.266-0.252-0.572-0.252-0.924
	c0-0.35,0.098-0.664,0.29-0.944c0.19-0.278,0.448-0.505,0.771-0.675c0.279-0.15,0.59-0.252,0.929-0.302s0.668-0.075,0.985-0.075
	c0.291,0,0.525,0.005,0.713,0.014c0.059,0.004,0.111,0.006,0.154,0.01c0.096,0.004,0.172,0.078,0.18,0.174l0.047,0.559
	c0.009,0.117-0.088,0.214-0.203,0.206c-0.061-0.005-0.135-0.01-0.217-0.017c-0.26-0.02-0.543-0.027-0.853-0.027
	c-0.219,0-0.426,0.02-0.622,0.057c-0.197,0.038-0.365,0.094-0.504,0.164c-0.203,0.104-0.35,0.229-0.438,0.377
	c-0.088,0.146-0.133,0.288-0.133,0.426c0,0.189,0.062,0.354,0.187,0.49c0.123,0.137,0.269,0.252,0.435,0.348
	c0.195,0.115,0.461,0.248,0.799,0.404c0.336,0.156,0.58,0.281,0.73,0.377c0.333,0.209,0.586,0.44,0.76,0.695
	C301.889,75.636,301.977,75.939,301.977,76.288"/>
<path fill="#FCFCFC" d="M312.991,77.711l-0.074,0.527c-0.014,0.092-0.089,0.158-0.181,0.164c-0.025,0.002-0.055,0.002-0.087,0.004
	c-0.13,0.004-0.242,0.006-0.337,0.006c-0.973,0-1.705-0.202-2.202-0.605c-0.498-0.406-0.746-1.027-0.746-1.865
	c0-0.525,0.003-1.09,0.011-1.69c0.006-0.56,0.01-1.24,0.01-2.047c0-0.104-0.085-0.19-0.188-0.19h-0.813
	c-0.104,0-0.189-0.086-0.189-0.189v-0.451c0-0.104,0.086-0.189,0.189-0.189h0.877c0.105,0,0.19-0.084,0.19-0.19v-1.304
	c0-0.104,0.085-0.189,0.19-0.189h0.648c0.104,0,0.19,0.085,0.19,0.189v1.304c0,0.106,0.085,0.19,0.189,0.19h2.161
	c0.106,0,0.191,0.086,0.191,0.189v0.451c0,0.104-0.085,0.189-0.191,0.189h-2.163c-0.104,0-0.188,0.084-0.188,0.188
	c-0.003,0.153-0.006,0.388-0.012,0.7c-0.007,0.492-0.01,0.856-0.01,1.094v0.732v1.028c0,0.616,0.165,1.06,0.497,1.332
	s0.844,0.408,1.535,0.408c0.084,0,0.187-0.002,0.306-0.002h0.003C312.916,77.491,313.007,77.595,312.991,77.711"/>
<path fill="#FCFCFC" d="M325.617,78.371h-0.703c-0.104,0-0.19-0.086-0.19-0.191v-0.634l-0.008-0.007
	c-0.331,0.218-0.744,0.441-1.238,0.672c-0.496,0.23-0.982,0.344-1.461,0.344c-0.652,0-1.165-0.193-1.534-0.582
	c-0.369-0.39-0.555-0.933-0.555-1.634c0-0.378,0.005-0.83,0.012-1.354c0.008-0.522,0.011-0.902,0.011-1.14
	c0-0.432-0.006-0.963-0.018-1.595c-0.008-0.406-0.014-0.699-0.017-0.877c-0.001-0.105,0.084-0.191,0.19-0.191h0.735
	c0.106,0,0.192,0.086,0.191,0.191c-0.002,0.169-0.007,0.445-0.013,0.829c-0.01,0.621-0.016,1.116-0.016,1.485
	c0,0.328,0.003,0.733,0.009,1.223c0.004,0.486,0.007,0.833,0.007,1.037c0.01,0.559,0.105,0.969,0.292,1.229
	c0.185,0.262,0.482,0.391,0.895,0.391c0.422,0,0.885-0.112,1.389-0.34c0.448-0.203,0.791-0.382,1.026-0.539
	c0.054-0.035,0.086-0.094,0.087-0.156c0.001-0.125,0.003-0.354,0.006-0.688c0.005-0.467,0.008-1.048,0.008-1.742
	c0-0.498-0.006-1.094-0.019-1.787c-0.008-0.441-0.013-0.754-0.015-0.94c-0.002-0.104,0.083-0.192,0.188-0.192h0.737
	c0.105,0,0.191,0.088,0.189,0.193c-0.002,0.139-0.006,0.34-0.012,0.605c-0.01,0.451-0.014,1.223-0.014,2.312
	c0,0.612,0.002,1.147,0.006,1.61c0.005,0.436,0.012,1.193,0.021,2.275C325.809,78.285,325.724,78.371,325.617,78.371
	 M321.741,69.803h-0.82c-0.104,0-0.188-0.086-0.188-0.188v-0.828c0-0.104,0.084-0.188,0.188-0.188h0.82
	c0.104,0,0.189,0.084,0.189,0.188v0.828C321.931,69.717,321.846,69.803,321.741,69.803 M324.811,69.803h-0.82
	c-0.105,0-0.19-0.086-0.19-0.188v-0.828c0-0.104,0.085-0.188,0.19-0.188h0.82c0.104,0,0.188,0.084,0.188,0.188v0.828
	C325,69.717,324.915,69.803,324.811,69.803"/>
<path fill="#FCFCFC" d="M339.248,78.371h-0.733c-0.106,0-0.191-0.088-0.19-0.193c0.004-0.221,0.009-0.595,0.015-1.121
	c0.007-0.744,0.011-1.203,0.011-1.377c0-0.248-0.001-0.611-0.003-1.093c-0.004-0.479-0.007-0.831-0.013-1.054
	c-0.014-0.545-0.117-0.936-0.313-1.174c-0.193-0.236-0.53-0.354-1.009-0.354c-0.288,0-0.646,0.085-1.072,0.256
	c-0.396,0.158-0.796,0.357-1.2,0.599c-0.058,0.033-0.093,0.095-0.094,0.16c-0.001,0.135-0.002,0.381-0.006,0.739
	c-0.006,0.513-0.009,0.979-0.009,1.399c0,0.551,0.008,1.213,0.019,1.988c0.009,0.49,0.014,0.834,0.017,1.03
	c0.001,0.105-0.085,0.192-0.189,0.192h-0.738c-0.106,0-0.191-0.089-0.188-0.194c0.003-0.146,0.007-0.37,0.011-0.676
	c0.011-0.548,0.016-1.36,0.016-2.44c0-0.498-0.001-1.082-0.004-1.748c-0.002-0.609-0.01-1.256-0.021-1.937
	c-0.003-0.106,0.082-0.194,0.189-0.194h0.723c0.106,0,0.191,0.088,0.19,0.192l-0.006,0.624l0.008,0.015
	c0.663-0.379,1.215-0.644,1.658-0.792c0.441-0.148,0.812-0.225,1.104-0.225c0.607,0,1.096,0.191,1.462,0.57
	c0.366,0.383,0.551,0.904,0.551,1.567c0,0.597-0.004,1.112-0.012,1.545c-0.007,0.433-0.011,0.786-0.011,1.056
	c0,0.432,0.006,0.97,0.02,1.615c0.006,0.385,0.012,0.658,0.014,0.828C339.439,78.284,339.354,78.371,339.248,78.371"/>
<g>
	<path fill="#FFFFFF" d="M85.869,49.296c0-16.788-11.142-30.972-26.434-35.565c-5.508-3.233-11.921-5.089-18.77-5.089
		C20.158,8.641,3.533,25.265,3.533,45.773c0,1.289,0.066,2.562,0.193,3.816c-0.127,1.255-0.193,2.528-0.193,3.816
		c0,20.508,16.624,37.132,37.132,37.132c7.68,0,14.816-2.332,20.739-6.327C75.675,79.031,85.869,65.354,85.869,49.296"/>
	<g>
		<g>
			<g opacity="0.72">
				<defs>
					<rect id="SVGID_1_" x="3.533" y="8.641" opacity="0.72" width="74.265" height="74.265"/>
				</defs>
				<clipPath id="SVGID_2_">
					<use xlink:href="#SVGID_1_"  overflow="visible"/>
				</clipPath>
				<g clip-path="url(#SVGID_2_)">
					<g>
						<defs>
							<path id="SVGID_3_" d="M77.798,45.773c0,20.508-16.625,37.132-37.132,37.132c-20.508,0-37.133-16.624-37.133-37.132
								c0-20.508,16.625-37.132,37.133-37.132C61.173,8.641,77.798,25.265,77.798,45.773"/>
						</defs>
						<clipPath id="SVGID_4_">
							<use xlink:href="#SVGID_3_"  overflow="visible"/>
						</clipPath>
						
							<linearGradient id="SVGID_5_" gradientUnits="userSpaceOnUse" x1="-330.9243" y1="-18.1953" x2="-330.3154" y2="-18.1953" gradientTransform="matrix(121.9748 0 0 121.9748 40367.8828 2265.1836)">
							<stop  offset="0" style="stop-color:#39A849"/>
							<stop  offset="0.0147" style="stop-color:#39A849"/>
							<stop  offset="0.5189" style="stop-color:#098D45"/>
							<stop  offset="0.9995" style="stop-color:#39A849"/>
							<stop  offset="1" style="stop-color:#39A849"/>
						</linearGradient>
						<rect x="3.533" y="8.641" clip-path="url(#SVGID_4_)" fill="url(#SVGID_5_)" width="74.265" height="74.264"/>
					</g>
				</g>
			</g>
			<g>
				<g>
					<g opacity="0.72">
						<defs>
							<rect id="SVGID_6_" x="11.605" y="12.164" opacity="0.72" width="74.265" height="74.264"/>
						</defs>
						<clipPath id="SVGID_7_">
							<use xlink:href="#SVGID_6_"  overflow="visible"/>
						</clipPath>
						<g clip-path="url(#SVGID_7_)">
							<g>
								<defs>
									<path id="SVGID_8_" d="M85.87,49.296c0,20.509-16.625,37.131-37.132,37.131c-20.508,0-37.132-16.622-37.132-37.131
										c0-20.508,16.625-37.132,37.132-37.132S85.87,28.788,85.87,49.296"/>
								</defs>
								<clipPath id="SVGID_9_">
									<use xlink:href="#SVGID_8_"  overflow="visible"/>
								</clipPath>
								
									<linearGradient id="SVGID_10_" gradientUnits="userSpaceOnUse" x1="-330.9663" y1="-18.2139" x2="-330.3574" y2="-18.2139" gradientTransform="matrix(121.9748 0 0 121.9748 40381.1328 2270.9336)">
									<stop  offset="0" style="stop-color:#2DAB66"/>
									<stop  offset="0.0147" style="stop-color:#2DAB66"/>
									<stop  offset="0.5189" style="stop-color:#00A099"/>
									<stop  offset="0.9995" style="stop-color:#2DAB66"/>
									<stop  offset="1" style="stop-color:#2DAB66"/>
								</linearGradient>
								<rect x="11.605" y="12.164" clip-path="url(#SVGID_9_)" fill="url(#SVGID_10_)" width="74.265" height="74.263"/>
							</g>
						</g>
					</g>
					<g>
						<g>
							<g opacity="0.72">
								<defs>
									<rect id="SVGID_11_" x="3.533" y="16.273" opacity="0.72" width="74.265" height="74.264"/>
								</defs>
								<clipPath id="SVGID_12_">
									<use xlink:href="#SVGID_11_"  overflow="visible"/>
								</clipPath>
								<g clip-path="url(#SVGID_12_)">
									<g>
										<defs>
											<path id="SVGID_13_" d="M77.798,53.405c0,20.508-16.625,37.132-37.132,37.132c-20.508,0-37.133-16.624-37.133-37.132
												c0-20.508,16.625-37.132,37.133-37.132C61.173,16.273,77.798,32.897,77.798,53.405"/>
										</defs>
										<clipPath id="SVGID_14_">
											<use xlink:href="#SVGID_13_"  overflow="visible"/>
										</clipPath>
										
											<linearGradient id="SVGID_15_" gradientUnits="userSpaceOnUse" x1="-330.9243" y1="-18.2354" x2="-330.3154" y2="-18.2354" gradientTransform="matrix(121.9748 0 0 121.9748 40367.8828 2277.6836)">
											<stop  offset="0" style="stop-color:#2DAB66"/>
											<stop  offset="0.4601" style="stop-color:#076735"/>
											<stop  offset="0.9991" style="stop-color:#2DAB66"/>
											<stop  offset="1" style="stop-color:#2DAB66"/>
										</linearGradient>
										<rect x="3.533" y="16.273" clip-path="url(#SVGID_14_)" fill="url(#SVGID_15_)" width="74.265" height="74.264"/>
									</g>
								</g>
							</g>
							<g>
								<g>
									<defs>
										<path id="SVGID_16_" d="M12.385,29.345c6.669-6.388,15.716-10.313,25.681-10.313c20.508,0,37.132,16.625,37.132,37.132
											c0,9.18-3.333,17.58-8.851,24.061c7.056-6.76,11.451-16.273,11.451-26.817c0-20.508-16.624-37.132-37.133-37.132
											C29.337,16.273,19.196,21.347,12.385,29.345"/>
									</defs>
									<clipPath id="SVGID_17_">
										<use xlink:href="#SVGID_16_"  overflow="visible"/>
									</clipPath>
									
										<linearGradient id="SVGID_18_" gradientUnits="userSpaceOnUse" x1="-330.6953" y1="-17.6953" x2="-330.0864" y2="-17.6953" gradientTransform="matrix(107.4369 0 0 107.4369 35541.3203 1949.4297)">
										<stop  offset="0" style="stop-color:#91BF3E"/>
										<stop  offset="0.4628" style="stop-color:#04A077"/>
										<stop  offset="0.9995" style="stop-color:#2DAB66"/>
										<stop  offset="1" style="stop-color:#2DAB66"/>
									</linearGradient>
									<rect x="12.385" y="16.273" clip-path="url(#SVGID_17_)" fill="url(#SVGID_18_)" width="65.413" height="63.952"/>
								</g>
							</g>
							<g>
								<g>
									<defs>
										<path id="SVGID_19_" d="M29.446,46.466c0-7.548,6.141-13.69,13.689-13.69c7.549,0,13.689,6.142,13.689,13.69
											s-6.14,13.689-13.689,13.689C35.587,60.155,29.446,54.014,29.446,46.466 M42.961,24.634
											c-5.745,0.045-11.181,2.421-15.307,6.69c-4.095,4.236-6.35,9.755-6.35,15.541v35.313h1.027
											c3.922,0,7.115-3.191,7.115-7.115V64.967c0-0.464,0.389-0.751,0.751-0.751c0.149,0,0.291,0.048,0.422,0.14
											c3.679,2.58,8.007,3.942,12.516,3.942c0.375,0,0.755-0.01,1.13-0.03c10.909-0.549,19.778-9.166,20.632-20.04
											c0.485-6.171-1.55-12.06-5.729-16.579c-4.121-4.458-9.966-7.015-16.034-7.015H42.961L42.961,24.634z"/>
									</defs>
									<clipPath id="SVGID_20_">
										<use xlink:href="#SVGID_19_"  overflow="visible"/>
									</clipPath>
									
										<linearGradient id="SVGID_21_" gradientUnits="userSpaceOnUse" x1="-329.6279" y1="-15.5977" x2="-329.0186" y2="-15.5977" gradientTransform="matrix(71.716 0 0 71.716 23660.8672 1171.9785)">
										<stop  offset="0" style="stop-color:#EBECEC"/>
										<stop  offset="0.4601" style="stop-color:#FFFFFF"/>
										<stop  offset="0.9996" style="stop-color:#EBECEC"/>
										<stop  offset="1" style="stop-color:#EBECEC"/>
									</linearGradient>
									<rect x="21.304" y="24.634" clip-path="url(#SVGID_20_)" fill="url(#SVGID_21_)" width="44.079" height="57.543"/>
								</g>
							</g>
						</g>
						<g>
							<g>
								<defs>
									<path id="SVGID_22_" d="M100.742,41.712c0-3.428,2.79-6.218,6.22-6.218c3.428,0,6.217,2.79,6.217,6.218
										c0,3.429-2.789,6.218-6.217,6.218C103.532,47.931,100.742,45.141,100.742,41.712 M106.871,30.378
										c-2.989,0.023-5.813,1.257-7.954,3.473c-2.123,2.196-3.292,5.058-3.292,8.06V62.79h1.055c2.24,0,4.062-1.823,4.062-4.062
										v-7.537c2.001,1.313,4.399,1.973,6.805,1.842c5.665-0.287,10.271-4.761,10.712-10.407c0.252-3.203-0.804-6.259-2.974-8.606
										c-2.141-2.314-5.175-3.642-8.324-3.642H106.871z"/>
								</defs>
								<clipPath id="SVGID_23_">
									<use xlink:href="#SVGID_22_"  overflow="visible"/>
								</clipPath>
								<polygon clip-path="url(#SVGID_23_)" fill="#29B473" points="96.173,26.884 123.46,31.152 117.965,66.284 90.678,62.018 
																	"/>
							</g>
						</g>
						<g>
							<g>
								<defs>
									<path id="SVGID_24_" d="M233.299,20.495v21.13c0,0.104,0.006,10.49,0.01,10.646l0.021,0.513h0.515
										c1.176,0,2.279-0.457,3.108-1.289c0.831-0.829,1.288-1.935,1.288-3.11l-0.003-6.57c0-3.296,2.683-5.978,5.979-5.978
										s5.978,2.681,5.978,5.978l-0.002,6.193c-0.001,1.176,0.457,2.283,1.29,3.115c0.832,0.833,1.938,1.291,3.115,1.291h0.521
										l0.013-0.521c0.002-0.082,0-10.542-0.033-10.958c-0.426-5.438-4.862-9.747-10.316-10.022
										c-2.354-0.115-4.602,0.492-6.543,1.767v-8.268c0-2.16-1.758-3.917-3.916-3.917H233.299z"/>
								</defs>
								<clipPath id="SVGID_25_">
									<use xlink:href="#SVGID_24_"  overflow="visible"/>
								</clipPath>
								<polygon clip-path="url(#SVGID_25_)" fill="#29B473" points="233.82,17.162 260.061,21.266 254.609,56.117 228.369,52.014 
																	"/>
							</g>
						</g>
						<g>
							<g>
								<defs>
									<path id="SVGID_26_" d="M263.924,41.711c0-3.296,2.68-5.978,5.978-5.978c3.297,0,5.979,2.681,5.979,5.978
										s-2.683,5.979-5.979,5.979C266.604,47.69,263.924,45.008,263.924,41.711 M261.885,34.302
										c-2.09,2.26-3.107,5.203-2.867,8.289c0.428,5.438,4.863,9.748,10.318,10.023c2.374,0.118,4.646-0.507,6.59-1.798h0.008
										c0.318,1.873,1.932,3.254,3.863,3.254h1.021V41.9c0-2.889-1.125-5.646-3.169-7.761c-2.063-2.134-4.783-3.321-7.66-3.344
										l-0.087-0.001C266.866,30.794,263.943,32.073,261.885,34.302"/>
								</defs>
								<clipPath id="SVGID_27_">
									<use xlink:href="#SVGID_26_"  overflow="visible"/>
								</clipPath>
								<polygon clip-path="url(#SVGID_27_)" fill="#29B473" points="259.303,27.429 284.37,31.35 280.29,57.436 255.223,53.516 
																	"/>
							</g>
						</g>
						<g>
							<g>
								<defs>
									<path id="SVGID_28_" d="M147.185,20.482v32.302h0.533c2.428,0,4.405-1.978,4.405-4.405V24.887
										c0-2.429-1.977-4.405-4.405-4.405H147.185z"/>
								</defs>
								<clipPath id="SVGID_29_">
									<use xlink:href="#SVGID_28_"  overflow="visible"/>
								</clipPath>
								<polygon clip-path="url(#SVGID_29_)" fill="#29B473" points="147.303,19.729 157.054,21.253 152.005,53.539 142.254,52.014 
																	"/>
							</g>
						</g>
						<g>
							<g>
								<defs>
									<path id="SVGID_30_" d="M287.662,34.142c-1.773,1.921-2.771,4.313-2.886,6.933v11.862h0.532
										c2.438,0,4.422-1.982,4.422-4.42v-7.454l-0.006-0.033c0.268-3.059,2.883-5.456,5.953-5.456
										c3.116,0,5.735,2.434,5.959,5.518l0.006,7.449c0,2.424,1.973,4.396,4.396,4.396h0.533l-0.002-11.896
										c-0.166-2.627-1.282-5.135-3.146-7.062c-2.062-2.134-4.783-3.321-7.658-3.344h-0.088
										C292.645,30.636,289.723,31.914,287.662,34.142"/>
								</defs>
								<clipPath id="SVGID_31_">
									<use xlink:href="#SVGID_30_"  overflow="visible"/>
								</clipPath>
								<polygon clip-path="url(#SVGID_31_)" fill="#29B473" points="285.297,27.308 309.977,31.168 306.051,56.266 281.371,52.404 
																	"/>
							</g>
						</g>
						<g>
							<g>
								<defs>
									<path id="SVGID_32_" d="M218.174,30.737c-2.627,0.166-5.135,1.283-7.062,3.145c-2.136,2.063-3.322,4.783-3.347,7.66v0.086
										c0,3.035,1.279,5.957,3.509,8.019c1.92,1.771,4.312,2.771,6.933,2.885h11.254v-0.532c0-2.438-1.982-4.421-4.423-4.421
										h-6.843l-0.035,0.003c-3.059-0.266-5.455-2.88-5.455-5.953c0-3.116,2.434-5.735,5.518-5.959l6.843-0.004
										c2.424,0,4.396-1.972,4.396-4.396v-0.532H218.174z"/>
								</defs>
								<clipPath id="SVGID_33_">
									<use xlink:href="#SVGID_32_"  overflow="visible"/>
								</clipPath>
								<polygon clip-path="url(#SVGID_33_)" fill="#29B473" points="208.284,27.424 232.788,31.256 228.943,55.844 204.439,52.011 
																	"/>
							</g>
						</g>
						<g>
							<g>
								<defs>
									<path id="SVGID_34_" d="M142.814,30.788c-2.407,0-4.366,1.958-4.366,4.366V42.5l0.004,0.033
										c-0.262,3.011-2.838,5.369-5.86,5.369c-3.067,0-5.646-2.396-5.867-5.432l-0.003-7.343c0-2.393-1.948-4.34-4.341-4.34
										h-0.533l0.001,11.733c0.164,2.592,1.265,5.065,3.101,6.964c2.035,2.105,4.719,3.275,7.559,3.299h0.082
										c2.991,0,5.874-1.26,7.907-3.459c1.75-1.893,2.734-4.253,2.847-6.838V30.788H142.814z"/>
								</defs>
								<clipPath id="SVGID_35_">
									<use xlink:href="#SVGID_34_"  overflow="visible"/>
								</clipPath>
								<polygon clip-path="url(#SVGID_35_)" fill="#29B473" points="122.362,27.505 146.705,31.313 142.834,56.066 118.491,52.26 
																	"/>
							</g>
						</g>
						<g>
							<g>
								<defs>
									<path id="SVGID_36_" d="M164.863,20.567c-2.248,0.143-4.392,1.098-6.038,2.688c-1.827,1.765-2.844,4.097-2.862,6.565
										l-0.001,0.074c0,2.577,1.077,5.06,2.957,6.822c-0.032,0.03-0.063,0.059-0.094,0.089c-1.827,1.765-2.844,4.099-2.862,6.571
										l-0.001,0.501c-0.001,1.204,0.255,2.367,0.744,3.364c1.624,3.315,4.693,5.387,8.223,5.54h13.355v-1.023
										c0-2.283-1.858-4.14-4.142-4.14l-9.205,0.004c-2.144-0.19-3.824-2.025-3.824-4.178c0-2.187,1.689-4.023,3.823-4.183
										l12.324-0.03h1.024V38.21c0-2.255-1.835-4.098-4.091-4.109l-9.256-0.026c-2.144-0.19-3.824-2.026-3.824-4.179
										c0-2.175,1.699-4.013,3.846-4.182l9.204-0.003c2.272,0,4.121-1.849,4.121-4.122v-1.022H164.863z"/>
								</defs>
								<clipPath id="SVGID_37_">
									<use xlink:href="#SVGID_36_"  overflow="visible"/>
								</clipPath>
								<polygon clip-path="url(#SVGID_37_)" fill="#29B473" points="156.493,17.158 183.202,21.335 177.75,56.191 151.04,52.016 
																	"/>
							</g>
						</g>
						<g>
							<g>
								<defs>
									<path id="SVGID_38_" d="M339.443,33.882c-2.134,2.062-3.32,4.783-3.343,7.66l-0.001,0.084
										c-0.009,2.304,0.665,4.464,1.944,6.248c2.05,2.854,5.063,4.508,8.495,4.657h9.523v-0.532c0-2.438-1.983-4.421-4.421-4.421
										h-5.115l-0.034,0.003c-3.059-0.266-5.456-2.88-5.456-5.953c0-3.116,2.435-5.735,5.52-5.959l2.805-0.004
										c0.171,0,0.336-0.008,0.456-0.019h1.082c0.968,0,1.795,0.729,1.842,1.624c0.024,0.477-0.142,0.93-0.469,1.274
										c-0.328,0.346-0.771,0.536-1.246,0.536h-3.367c-2.407,0-4.366,1.959-4.366,4.366v0.533h7.532
										c3.692,0,6.751-2.913,6.815-6.493c0.032-1.791-0.641-3.481-1.896-4.759c-1.253-1.278-2.93-1.98-4.72-1.98l-4.521-0.01
										C343.877,30.903,341.37,32.02,339.443,33.882"/>
								</defs>
								<clipPath id="SVGID_39_">
									<use xlink:href="#SVGID_38_"  overflow="visible"/>
								</clipPath>
								<polygon clip-path="url(#SVGID_39_)" fill="#29B473" points="336.607,27.442 361,31.258 357.157,55.826 332.765,52.011 
																	"/>
							</g>
						</g>
						<g>
							<g>
								<defs>
									<path id="SVGID_40_" d="M320.747,47.659c-0.034-0.003-0.067-0.009-0.106-0.016l-0.152-0.022
										c-0.107-0.013-0.215-0.028-0.324-0.05c-0.044-0.009-0.09-0.021-0.156-0.038l-0.183-0.045
										c-0.074-0.018-0.146-0.035-0.216-0.056c-0.063-0.019-0.121-0.042-0.199-0.07l-0.17-0.061
										c-0.059-0.02-0.114-0.041-0.164-0.061c-0.075-0.031-0.148-0.065-0.223-0.102l-0.15-0.072
										c-0.047-0.022-0.094-0.043-0.138-0.066c-0.093-0.049-0.181-0.103-0.303-0.176l-0.179-0.108
										c-0.104-0.069-0.205-0.143-0.301-0.217l-0.145-0.106c-0.106-0.085-0.209-0.174-0.347-0.299l-0.067-0.063
										c-0.105-0.1-0.204-0.204-0.303-0.313l-0.076-0.084c-0.101-0.116-0.194-0.235-0.286-0.357l-0.069-0.094
										c-0.089-0.124-0.172-0.251-0.25-0.378l-0.033-0.055c-0.086-0.146-0.168-0.295-0.258-0.482
										c-0.075-0.161-0.144-0.323-0.214-0.51c-0.063-0.171-0.117-0.346-0.167-0.534c-0.046-0.18-0.086-0.363-0.121-0.584
										c-0.029-0.179-0.048-0.36-0.061-0.547l-0.007-0.095c-0.008-0.095-0.015-0.19-0.015-0.287c0-3.296,2.683-5.978,5.979-5.978
										c3.298,0,5.979,2.681,5.979,5.978c0,0.097-0.008,0.192-0.014,0.289l-0.008,0.095c-0.014,0.195-0.034,0.388-0.063,0.577
										c-0.031,0.188-0.07,0.372-0.121,0.563c-0.047,0.179-0.103,0.353-0.171,0.543c-0.063,0.167-0.132,0.33-0.225,0.525
										c-0.073,0.153-0.153,0.303-0.235,0.44l-0.036,0.06c-0.079,0.129-0.162,0.256-0.251,0.38l-0.069,0.094
										c-0.092,0.122-0.188,0.241-0.28,0.35l-0.085,0.093c-0.096,0.105-0.194,0.21-0.292,0.303l-0.117,0.105
										c-0.1,0.09-0.199,0.179-0.295,0.257l-0.148,0.11c-0.101,0.076-0.201,0.15-0.308,0.22c-0.035,0.023-0.072,0.044-0.117,0.072
										l-0.089,0.052c-0.09,0.055-0.181,0.11-0.272,0.16c-0.045,0.023-0.092,0.044-0.14,0.067l-0.15,0.071
										c-0.072,0.036-0.145,0.07-0.216,0.099c-0.057,0.023-0.117,0.044-0.179,0.066l-0.195,0.071
										c-0.053,0.019-0.105,0.04-0.164,0.057c-0.066,0.021-0.137,0.037-0.225,0.058l-0.18,0.045
										c-0.051,0.013-0.104,0.027-0.153,0.037c-0.099,0.021-0.197,0.033-0.378,0.057l-0.103,0.017
										c-0.034,0.005-0.067,0.011-0.101,0.014c-0.192,0.02-0.387,0.031-0.604,0.031c-0.036,0.001-0.071,0.002-0.107,0.002
										C321.085,47.692,320.932,47.677,320.747,47.659 M321.309,30.795c-2.204,0-4.272,0.618-5.981,1.786
										c-3.342,2.286-5.117,5.864-4.87,9.801c0.001,0.109,0.004,0.185,0.006,0.208c0.027,0.339,0.068,0.678,0.128,1.007
										c0.169,0.978,0.473,1.926,0.898,2.816c1.124,2.349,3.054,4.226,5.438,5.282c0.602,0.267,1.229,0.479,1.86,0.631
										c0.651,0.156,1.321,0.253,2.002,0.288l0.36,0.009c0.335,0.01,0.674,0.001,1.036-0.027c0.277-0.021,0.554-0.054,0.829-0.095
										c1.551-0.237,3-0.795,4.313-1.657v0.079c-0.005,0.046-0.021,0.171-0.035,2.597l0.005,0.035
										c-0.268,3.06-2.884,5.454-5.954,5.454c-2.056,0-3.942-1.044-5.047-2.792c-0.648-1.027-1.842-1.668-3.111-1.668h-2.634
										l0.142,0.646c0.442,2.029,1.447,3.897,2.905,5.406c2.063,2.135,4.782,3.321,7.663,3.344h0.114
										c2.274,0,4.494-0.699,6.253-1.973c2.829-2.049,4.471-5.05,4.619-8.466l0.014-11.608c0-2.889-1.125-5.646-3.169-7.761
										c-2.063-2.134-4.782-3.321-7.66-3.344L321.309,30.795L321.309,30.795z"/>
								</defs>
								<clipPath id="SVGID_41_">
									<use xlink:href="#SVGID_40_"  overflow="visible"/>
								</clipPath>
								<polygon clip-path="url(#SVGID_41_)" fill="#29B473" points="310.736,27.428 337.322,31.586 331.735,67.314 305.148,63.155 
																	"/>
							</g>
						</g>
						<g>
							<g>
								<defs>
									<path id="SVGID_42_" d="M197.654,32.218l-4.364,5.094l-4.34-4.882c-1.542-1.731-4.286-2.153-6.386-0.981l-0.896,0.502
										l8.211,9.313l-8.734,10.179l0.811,0.518c0.715,0.45,1.557,0.688,2.436,0.688c1.33,0,2.598-0.559,3.392-1.494l5.282-6.223
										l5.26,6.021c1.539,1.76,4.305,2.202,6.432,1.034l0.903-0.497l-9.203-10.534l7.72-8.956l-0.793-0.521
										c-0.727-0.475-1.578-0.703-2.426-0.703C199.705,30.774,198.465,31.273,197.654,32.218"/>
								</defs>
								<clipPath id="SVGID_43_">
									<use xlink:href="#SVGID_42_"  overflow="visible"/>
								</clipPath>
								<polygon clip-path="url(#SVGID_43_)" fill="#29B473" points="181.731,26.534 209.15,30.823 205.072,56.896 177.653,52.607 
																	"/>
							</g>
						</g>
					</g>
				</g>
			</g>
		</g>
	</g>
</g>
</svg>
